<svg width="15" height="14" viewBox="0 0 15 14" fill="none" xmlns="http://www.w3.org/2000/svg">
<path id="Vector" d="M14.4201 9.83306H5.11543L5.58262 8.8815L13.3451 8.86744C13.6076 8.86744 13.8326 8.67994 13.8795 8.42056L14.9545 2.40338C14.9826 2.24556 14.9404 2.08306 14.8373 1.95963C14.7863 1.89888 14.7228 1.84994 14.651 1.81621C14.5792 1.78249 14.501 1.76478 14.4217 1.76431L4.54668 1.7315L4.4623 1.33463C4.40918 1.0815 4.18105 0.897125 3.92168 0.897125H1.50762C1.36133 0.897125 1.22104 0.955236 1.1176 1.05867C1.01417 1.16211 0.956055 1.3024 0.956055 1.44869C0.956055 1.59497 1.01417 1.73526 1.1176 1.8387C1.22104 1.94214 1.36133 2.00025 1.50762 2.00025H3.4748L3.84355 3.75338L4.75137 8.14869L3.58262 10.0565C3.52192 10.1384 3.48536 10.2357 3.47708 10.3373C3.4688 10.4389 3.48912 10.5408 3.53574 10.6315C3.62949 10.8174 3.81855 10.9346 4.02793 10.9346H5.00918C4.79999 11.2125 4.687 11.5509 4.6873 11.8987C4.6873 12.7831 5.40605 13.5018 6.29043 13.5018C7.1748 13.5018 7.89355 12.7831 7.89355 11.8987C7.89355 11.5502 7.77793 11.2112 7.57168 10.9346H10.0889C9.87968 11.2125 9.76668 11.5509 9.76699 11.8987C9.76699 12.7831 10.4857 13.5018 11.3701 13.5018C12.2545 13.5018 12.9732 12.7831 12.9732 11.8987C12.9732 11.5502 12.8576 11.2112 12.6514 10.9346H14.4217C14.7248 10.9346 14.9732 10.6877 14.9732 10.3831C14.9723 10.2369 14.9137 10.0971 14.81 9.99405C14.7064 9.89102 14.5662 9.83314 14.4201 9.83306V9.83306ZM4.77637 2.819L13.7732 2.84869L12.892 7.78306L5.8248 7.79556L4.77637 2.819ZM6.29043 12.3924C6.01855 12.3924 5.79668 12.1706 5.79668 11.8987C5.79668 11.6268 6.01855 11.4049 6.29043 11.4049C6.5623 11.4049 6.78418 11.6268 6.78418 11.8987C6.78418 12.0296 6.73216 12.1552 6.63956 12.2478C6.54697 12.3404 6.42138 12.3924 6.29043 12.3924V12.3924ZM11.3701 12.3924C11.0982 12.3924 10.8764 12.1706 10.8764 11.8987C10.8764 11.6268 11.0982 11.4049 11.3701 11.4049C11.642 11.4049 11.8639 11.6268 11.8639 11.8987C11.8639 12.0296 11.8118 12.1552 11.7193 12.2478C11.6267 12.3404 11.5011 12.3924 11.3701 12.3924V12.3924Z" fill="white"/>
</svg>
